{
    "asset" : {
        "generator" : "Khronos glTF Blender I/O v1.7.33",
        "version" : "2.0"
    },
    "scene" : 0,
    "scenes" : [
        {
            "name" : "Scene",
            "nodes" : [
                0
            ]
        }
    ],
    "nodes" : [
        {
            "mesh" : 0,
            "name" : "Plane",
            "rotation" : [
                0.7071068286895752,
                0,
                0,
                0.7071068286895752
            ]
        }
    ],
    "materials" : [
        {
            "doubleSided" : true,
            "name" : "Material.001",
            "pbrMetallicRoughness" : {
                "baseColorFactor" : [
                    0,
                    0.21586059033870697,
                    1.0000001192092896,
                    1
                ],
                "metallicFactor" : 0,
                "roughnessFactor" : 0.5
            }
        }
    ],
    "meshes" : [
        {
            "name" : "Plane",
            "primitives" : [
                {
                    "attributes" : {
                        "POSITION" : 0,
                        "NORMAL" : 1
                    },
                    "indices" : 2,
                    "material" : 0
                }
            ]
        }
    ],
    "accessors" : [
        {
            "bufferView" : 0,
            "componentType" : 5126,
            "count" : 12064,
            "max" : [
                1.9590498208999634,
                0.8500902652740479,
                1.2721402645111084
            ],
            "min" : [
                -1.9809564352035522,
                -2.2157170320724617e-08,
                -1.4480094909667969
            ],
            "type" : "VEC3"
        },
        {
            "bufferView" : 1,
            "componentType" : 5126,
            "count" : 12064,
            "type" : "VEC3"
        },
        {
            "bufferView" : 2,
            "componentType" : 5123,
            "count" : 18096,
            "type" : "SCALAR"
        }
    ],
    "bufferViews" : [
        {
            "buffer" : 0,
            "byteLength" : 144768,
            "byteOffset" : 0
        },
        {
            "buffer" : 0,
            "byteLength" : 144768,
            "byteOffset" : 144768
        },
        {
            "buffer" : 0,
            "byteLength" : 36192,
            "byteOffset" : 289536
        }
    ],
    "buffers" : [
        {
            "byteLength" : 325728,
            "uri" : "data:application/octet-stream;base64,"
        }
    ]
}
